<!DOCTYPE svg PUBLIC "-//W3C//DTD SVG 1.1//EN" "http://www.w3.org/Graphics/SVG/1.1/DTD/svg11.dtd">
<!-- Uploaded to: SVG Repo, www.svgrepo.com, Transformed by: SVG Repo Mixer Tools -->
<svg fill="#3da023" version="1.1" id="Capa_1" xmlns="http://www.w3.org/2000/svg" xmlns:xlink="http://www.w3.org/1999/xlink" width="800px" height="800px" viewBox="-10.57 -10.57 373.48 373.48" xml:space="preserve" stroke="#3da023" stroke-width="12.684311999999998">
<g id="SVGRepo_bgCarrier" stroke-width="0"/>
<g id="SVGRepo_tracerCarrier" stroke-linecap="round" stroke-linejoin="round"/>
<g id="SVGRepo_iconCarrier"> <g> <g> <path d="M95.101,177.085c10.638,0,20.343-3.986,27.776-10.504l52.033,52.037v130.923c0,1.542,1.256,2.802,2.804,2.802 c1.544,0,2.802-1.26,2.802-2.802v-75.723c0.063-0.052,0.123-0.076,0.195-0.108l48.769-48.778 c7.423,6.523,17.139,10.507,27.766,10.507c23.29,0,42.232-18.949,42.232-42.243c0-23.287-18.942-42.236-42.232-42.236 c-23.278,0-42.222,18.95-42.222,42.236c0,10.632,3.983,20.344,10.495,27.775l-45.003,45.007V84.329 c21.989-1.451,39.433-19.735,39.433-42.091C219.947,18.95,201.005,0,177.705,0c-23.286,0-42.238,18.944-42.238,42.238 c0,22.34,17.456,40.641,39.438,42.091v126.365l-48.072-48.069c6.516-7.431,10.501-17.152,10.501-27.775 c0-23.282-18.95-42.228-42.239-42.228c-23.285,0-42.23,18.945-42.23,42.228C52.87,158.125,71.82,177.085,95.101,177.085z M220.636,193.183c0-20.197,16.449-36.638,36.632-36.638c20.195,0,36.622,16.441,36.622,36.638 c0,20.191-16.427,36.618-36.622,36.618c-9.095,0-17.397-3.349-23.816-8.843l25.801-25.794c1.08-1.096,1.08-2.879,0-3.963 c-1.092-1.094-2.884-1.094-3.962,0l-25.798,25.796C223.974,210.601,220.636,202.278,220.636,193.183z M141.077,42.249 c0-20.194,16.435-36.635,36.636-36.635c20.192,0,36.642,16.446,36.642,36.635c0,19.265-14.937,35.048-33.825,36.487V42.249 c0-1.541-1.272-2.801-2.807-2.801c-1.533,0-2.802,1.261-2.802,2.801v36.487C156.016,77.297,141.077,61.502,141.077,42.249z M95.101,98.225c20.203,0,36.636,16.435,36.636,36.624c0,9.094-3.35,17.393-8.854,23.814l-25.798-25.798 c-1.092-1.081-2.867-1.081-3.959,0c-1.095,1.092-1.095,2.881,0,3.962l25.797,25.797c-6.409,5.493-14.727,8.854-23.822,8.854 c-20.194,0-36.626-16.446-36.626-36.635C58.479,114.655,74.906,98.225,95.101,98.225z"/> </g> </g> </g>
</svg>